<?xml version="1.0" standalone="no"?>
<!DOCTYPE svg PUBLIC "-//W3C//DTD SVG 20010904//EN"
 "http://www.w3.org/TR/2001/REC-SVG-20010904/DTD/svg10.dtd">
<svg version="1.0" xmlns="http://www.w3.org/2000/svg"
 width="120.000000pt" height="120.000000pt" viewBox="0 0 120.000000 120.000000"
 preserveAspectRatio="xMidYMid meet">
<metadata>
Created by potrace 1.14, written by Peter Selinger 2001-2017
</metadata>
<g transform="translate(0.000000,120.000000) scale(0.100000,-0.100000)"
fill="#000000" stroke="none">
<path d="M435 1138 c-44 -11 -87 -26 -95 -34 -9 -7 -24 -17 -35 -21 -45 -19
-83 -49 -133 -106 -48 -55 -107 -158 -118 -207 -2 -11 -7 -30 -10 -42 -13 -48
-15 -166 -4 -223 15 -77 14 -74 33 -119 9 -21 17 -42 17 -46 0 -12 81 -123
114 -154 48 -47 124 -92 196 -117 73 -25 257 -35 326 -18 21 5 48 12 59 14 58
14 155 73 210 131 76 78 76 78 107 144 37 77 60 173 60 250 0 64 -24 186 -45
225 -6 11 -11 22 -12 25 -1 21 -68 113 -117 161 -56 56 -171 123 -226 134 -12
2 -26 7 -32 10 -5 3 -56 7 -112 9 -80 3 -121 0 -183 -16z"/>
</g>
</svg>
